<svg xmlns="http://www.w3.org/2000/svg" version="1.1" xmlns:xlink="http://www.w3.org/1999/xlink" xmlns:svgjs="http://svgjs.com/svgjs" width="512" height="512" x="0" y="0" viewBox="0 0 27 27" style="enable-background:new 0 0 512 512" xml:space="preserve"><g><path d="M23.79 10.112a.999.999 0 1 0-1.852.756c.445 1.09.67 2.245.67 3.434 0 5.022-4.086 9.108-9.108 9.108s-9.108-4.086-9.108-9.108S8.478 5.194 13.5 5.194c1.019 0 2.014.189 2.963.515l-1.144.466a1 1 0 1 0 .756 1.851l3.222-1.313a1 1 0 0 0 .545-.541c.11-.263.042-.667 0-.768l-1.325-3.198a1 1 0 1 0-1.848.766l.336.81a11.094 11.094 0 0 0-3.505-.588c-6.125 0-11.108 4.983-11.108 11.108S7.375 25.41 13.5 25.41s11.108-4.983 11.108-11.108c0-1.448-.275-2.858-.818-4.19z" fill="#1a73e8" data-original="#000000"></path><circle cx="13.503" cy="12.3" r="2.5" fill="#1a73e8" data-original="#000000"></circle><path d="M10.193 14.55c-.92.78-1.55 1.9-1.71 3.18-.05.39.07.79.34 1.09s.66.48 1.07.48h7.21c.41 0 .8-.18 1.07-.48s.39-.7.34-1.09c-.16-1.28-.79-2.4-1.7-3.18a3.984 3.984 0 0 1-3.31 1.75c-1.38 0-2.59-.69-3.31-1.75z" fill="#1a73e8" data-original="#000000"></path></g></svg>